<?xml version="1.0" standalone="no"?>
<!DOCTYPE svg PUBLIC "-//W3C//DTD SVG 20010904//EN"
 "http://www.w3.org/TR/2001/REC-SVG-20010904/DTD/svg10.dtd">
<svg version="1.0" xmlns="http://www.w3.org/2000/svg"
 width="604.000000pt" height="604.000000pt" viewBox="0 0 604.000000 604.000000"
 preserveAspectRatio="xMidYMid meet">
<metadata>
Created by potrace 1.14, written by Peter Selinger 2001-2017
</metadata>
<g transform="translate(0.000000,604.000000) scale(0.100000,-0.100000)"
fill="#000000" stroke="none">
<path d="M2800 5642 c0 -4 -21 -7 -47 -7 -47 0 -153 -12 -176 -20 -7 -2 -28
-6 -47 -9 -64 -9 -263 -64 -360 -99 -134 -48 -265 -108 -375 -172 -33 -19 -73
-42 -90 -51 -16 -9 -32 -20 -35 -23 -3 -3 -32 -24 -65 -46 -33 -22 -61 -43
-63 -47 -2 -5 -8 -8 -14 -8 -5 0 -15 -6 -22 -12 -7 -7 -35 -31 -62 -53 -51
-41 -271 -258 -314 -310 -14 -16 -53 -68 -88 -115 -34 -47 -66 -90 -71 -96
-22 -28 -121 -200 -121 -211 0 -7 -3 -13 -7 -13 -5 0 -19 -24 -32 -53 -13 -28
-28 -59 -32 -67 -5 -8 -12 -22 -15 -30 -3 -8 -10 -24 -14 -35 -45 -107 -109
-302 -124 -380 -2 -11 -9 -40 -15 -65 -10 -44 -13 -61 -26 -145 -8 -55 -28
-279 -27 -310 1 -54 13 -287 17 -310 2 -16 7 -55 10 -85 4 -30 9 -62 11 -72 2
-10 6 -28 9 -40 3 -13 8 -36 11 -53 11 -61 44 -182 73 -265 96 -278 224 -511
405 -740 71 -90 353 -370 372 -370 8 0 14 -4 14 -8 0 -5 32 -31 71 -58 39 -27
76 -53 83 -59 20 -17 75 -55 79 -55 2 0 42 -21 88 -48 110 -62 292 -146 303
-139 1 1 9 -3 17 -9 21 -18 249 -88 349 -108 14 -3 36 -8 50 -11 14 -3 39 -7
55 -10 17 -2 46 -7 66 -10 88 -14 126 -17 319 -20 113 -2 232 1 265 5 33 5 84
11 114 15 30 4 63 9 75 11 12 3 35 7 51 10 34 6 182 42 205 50 8 3 15 5 15 4
0 -3 214 74 254 92 78 34 261 128 305 156 22 15 51 32 63 38 12 7 28 17 35 23
7 6 47 35 88 66 119 87 148 112 280 245 135 136 144 146 210 235 25 33 49 64
53 70 14 17 91 137 120 187 87 149 203 419 216 501 0 4 7 23 16 43 8 19 14 38
13 42 -1 4 4 27 11 52 15 53 17 59 35 170 27 159 27 158 38 435 1 27 -13 234
-17 255 -3 14 -8 45 -11 70 -23 183 -97 442 -174 615 -20 44 -22 66 -22 185 1
74 -3 139 -8 145 -4 5 -30 10 -57 9 -47 -1 -48 -1 -47 -32 0 -18 -1 -32 -2
-32 -1 0 -32 44 -67 98 -35 54 -71 107 -80 118 -156 195 -328 366 -488 487
-64 48 -122 87 -128 87 -6 0 -11 5 -11 10 0 6 -5 10 -11 10 -6 0 -31 14 -56
31 -61 43 -256 139 -372 184 -92 36 -302 100 -358 109 -15 2 -28 5 -28 6 0 2
-27 7 -81 15 -22 3 -52 8 -67 10 -68 13 -138 17 -329 20 -115 2 -208 1 -208
-3z"/>
<path d="M5633 4254 c-121 -31 -200 -116 -232 -249 -16 -64 -12 -213 7 -242 7
-12 13 -24 13 -27 -3 -18 3 -29 39 -75 72 -91 174 -132 317 -126 89 4 108 7
181 32 l52 17 0 53 c0 29 -2 53 -4 53 -2 0 -21 -8 -42 -17 -105 -46 -255 -55
-326 -20 -70 35 -113 96 -124 176 -5 38 -4 41 18 42 12 0 132 1 264 1 l241 0
-2 66 c-5 152 -62 253 -172 303 -54 24 -162 31 -230 13z m177 -99 c54 -28 98
-85 103 -133 2 -15 6 -33 10 -39 4 -7 4 -14 0 -16 -17 -9 -408 -2 -408 8 2 70
54 147 119 175 48 20 140 23 176 5z"/>
</g>
</svg>
